<svg width="19" height="23" viewBox="0 0 19 23" fill="none" xmlns="http://www.w3.org/2000/svg">
<path d="M15.3877 12.0424C15.4104 10.2783 16.3353 8.64874 17.8382 7.72472C16.8858 6.36443 15.3476 5.53289 13.6878 5.48096C11.9416 5.29766 10.2487 6.52588 9.35885 6.52588C8.45178 6.52588 7.08172 5.49916 5.60638 5.52951C3.66523 5.59222 1.89942 6.66913 0.955007 8.36621C-1.0561 11.8482 0.444008 16.9656 2.37052 19.7802C3.3344 21.1584 4.46089 22.698 5.9349 22.6434C7.3773 22.5835 7.91601 21.7236 9.6571 21.7236C11.382 21.7236 11.8874 22.6434 13.3914 22.6087C14.9391 22.5835 15.9143 21.2243 16.8444 19.833C17.5369 18.851 18.0698 17.7656 18.4234 16.6171C16.5851 15.8396 15.3898 14.0384 15.3877 12.0424ZM12.5471 3.62989C13.391 2.61682 13.8067 1.31468 13.7061 0C12.4168 0.135415 11.2258 0.751614 10.3705 1.72582C9.52593 2.68701 9.09807 3.9445 9.18117 5.22132C10.4877 5.23477 11.7283 4.64822 12.5471 3.62989Z" fill="white"/>
</svg>
