<svg width="28" height="29" viewBox="0 0 28 29" fill="none" xmlns="http://www.w3.org/2000/svg">
<path fill-rule="evenodd" clip-rule="evenodd" d="M25.9821 14.3746C25.9821 14.3746 28.0477 12.4956 27.9413 10.391L27.8161 10.2344C27.4241 10.4797 26.9702 10.6079 26.5079 10.604L26.1887 10.7982C26.1887 10.7982 25.9195 10.5789 25.4563 10.9422C25.4563 10.9422 25.062 10.3159 24.6301 10.5038L24.9181 10.2094C24.9181 10.2094 24.7491 9.62687 23.3783 8.95667C23.1121 8.59762 22.9011 8.20071 22.7524 7.77913L22.2141 7.4409C22.2141 7.4409 22.1327 6.93982 22.0701 6.39489C22.0701 6.39489 21.7759 6.00655 21.4442 5.98149C21.3976 5.75456 21.3703 5.52406 21.3628 5.2925C21.3628 5.2925 21.0937 5.2925 20.6993 4.41561C20.5312 4.10686 20.3365 3.81344 20.1172 3.53871L19.9232 3.16916L20.0296 3.01884C20.0296 3.01884 20.4677 3.75167 20.7807 3.87694C20.9112 3.66857 20.9804 3.42762 20.9804 3.18169C20.9804 2.93577 20.9112 2.69481 20.7807 2.48644C20.5991 2.54839 20.4063 2.57093 20.2153 2.55257C20.0243 2.53421 19.8393 2.47537 19.6728 2.37996C19.366 2.44044 19.0703 2.5482 18.7965 2.6994C18.6975 2.6293 18.582 2.5861 18.4613 2.57402C18.3407 2.56194 18.2189 2.5814 18.108 2.6305C18.108 2.6305 18.252 2.286 16.9 2.34864L17.288 2.25469L16.4806 2.10436C16.505 2.07184 16.5181 2.03228 16.5181 1.99162C16.5181 1.95096 16.505 1.9114 16.4806 1.87887C16.2507 1.77115 15.988 1.75663 15.7477 1.83836C15.5073 1.92009 15.3079 2.09173 15.1912 2.31732C15.1912 2.31732 15.5354 2.66182 14.9971 2.86225C14.6224 2.62166 14.1902 2.48545 13.7453 2.46765C13.6049 2.33933 13.5122 2.16706 13.4824 1.97909C13.212 1.83351 12.896 1.79762 12.5999 1.87887C12.5999 1.87887 12.3307 1.44043 11.9739 1.58449C11.9739 1.58449 11.4294 1.28384 12.0991 0.958136C12.1392 0.856991 12.1402 0.74456 12.102 0.642694C12.0639 0.540827 11.9892 0.4568 11.8926 0.406944C11.8926 0.406944 12.1116 0.406943 12.1429 0.068712C12.0028 0.00794635 11.8487 -0.0130913 11.6975 0.00789822C11.5463 0.0288877 11.4037 0.0910973 11.2854 0.187721C11.1194 0.100484 10.9347 0.0549063 10.7471 0.0549063C10.5596 0.0549063 10.3749 0.100484 10.2088 0.187721C9.89047 0.072708 9.55148 0.0260922 9.21392 0.0509137C8.87637 0.0757352 8.54782 0.171437 8.24968 0.331782H7.8178C7.57752 0.490619 7.28845 0.55834 7.00269 0.522739C6.71692 0.487137 6.45327 0.350555 6.25924 0.137611C6.01229 0.257379 5.82152 0.468496 5.72721 0.726383C5.38188 0.964147 5.00468 1.15183 4.6068 1.28384C4.47041 1.41265 4.36175 1.56798 4.28749 1.74031C4.21322 1.91264 4.17491 2.09833 4.17491 2.28601C3.84458 2.6554 3.40672 2.91172 2.92307 3.01884C2.70815 3.17516 2.54645 3.39382 2.45988 3.64519C2.45988 3.64519 1.9967 3.64519 1.72755 4.40308C1.272 4.74648 0.896181 5.18452 0.625924 5.68711C0.625924 5.68711 1.18926 6.75817 0 8.41801L0.294184 8.91909L0.0751115 9.50786C0.0751115 9.50786 1.07659 9.8461 1.41459 11.6249C1.41459 11.6249 2.27211 12.2513 3.3487 12.9967C3.3487 12.9967 5.01992 12.5144 5.78354 12.8463C6.13213 12.7139 6.42855 12.4722 6.62854 12.1573C6.77657 11.8888 6.84517 11.5836 6.82633 11.2775C6.80748 10.9714 6.70198 10.677 6.52213 10.4286C6.4438 10.3291 6.4055 10.2039 6.41476 10.0775C6.42403 9.95118 6.48019 9.83288 6.57221 9.74588C7.38829 8.92197 8.40412 8.32414 9.52031 8.01088C9.58186 7.98848 9.64732 7.97887 9.7127 7.98263C9.77808 7.98639 9.84201 8.00344 9.90059 8.03275C9.95916 8.06206 10.0112 8.103 10.0534 8.15309C10.0956 8.20317 10.1272 8.26135 10.1462 8.32406C10.2768 8.60662 10.4851 8.84618 10.7467 9.01476C11.0082 9.18334 11.3123 9.27398 11.6234 9.27611C11.9331 9.27465 12.2358 9.18412 12.4955 9.01532C12.7551 8.84652 12.9609 8.60657 13.0881 8.32406C13.139 8.20658 13.2297 8.1108 13.3441 8.05354C13.4586 7.99627 13.5895 7.98117 13.714 8.01088C14.8189 8.32443 15.8308 8.90276 16.6621 9.69577C16.7568 9.78118 16.8148 9.89986 16.8242 10.0271C16.8335 10.1543 16.7934 10.2802 16.7122 10.3785C16.5274 10.6259 16.4189 10.9219 16.4 11.2301C16.3811 11.5383 16.4526 11.8454 16.6058 12.1135C16.7518 12.3952 16.9828 12.6236 17.2659 12.7664C17.5491 12.9092 17.87 12.9591 18.1831 12.909C18.313 12.9006 18.4416 12.938 18.5468 13.0146C18.652 13.0913 18.7271 13.2024 18.759 13.3286L18.809 13.5103C18.9643 13.9971 19.0528 14.5028 19.0719 15.0135C19.0799 15.596 19.0126 16.1771 18.8716 16.7423C18.8458 16.8734 18.7715 16.99 18.6637 17.069C18.5558 17.1479 18.4223 17.1833 18.2895 17.1682C17.9828 17.1434 17.6752 17.2026 17.3995 17.3395C17.1239 17.4763 16.8906 17.6855 16.7247 17.9449C16.5744 18.2127 16.5045 18.5183 16.5234 18.8249C16.5423 19.1315 16.6491 19.4262 16.8311 19.6736C16.9135 19.7722 16.9548 19.8986 16.9467 20.0268C16.9385 20.1551 16.8815 20.2753 16.7873 20.3626C15.9298 21.1687 14.8971 21.7648 13.7703 22.1038H13.6076C13.5062 22.1044 13.4071 22.0742 13.3233 22.0171C13.2394 21.9601 13.1749 21.8789 13.1382 21.7844C13.0218 21.5253 12.8388 21.3018 12.6079 21.1368C12.3769 20.9717 12.1063 20.871 11.8237 20.8449C11.7234 21.3035 11.6772 21.7723 11.686 22.2416C11.686 22.2416 12.8064 23.8263 12.8064 24.365C12.7641 24.7572 12.8059 25.1539 12.9289 25.5287C13.052 25.9035 13.2535 26.2477 13.52 26.5384C13.7121 26.8826 13.8734 27.2431 14.0019 27.6158C14.0561 27.6445 14.103 27.6853 14.1389 27.7351C14.1749 27.7849 14.1989 27.8422 14.2092 27.9027C14.2195 27.9632 14.2157 28.0253 14.1982 28.0842C14.1808 28.143 14.15 28.197 14.1083 28.2421C14.1218 28.4334 14.2017 28.614 14.3344 28.7525C14.467 28.8909 14.6439 28.9785 14.8344 29C15.3638 28.7449 15.9638 28.6765 16.5369 28.8058C17.4696 29.025 18.5274 27.9289 19.0093 27.1209L19.5977 26.6825C19.5977 26.6825 20.0797 26.0561 19.7855 25.6302C19.8236 25.5316 19.8861 25.4443 19.9671 25.3764C20.0481 25.3085 20.145 25.2622 20.2487 25.2419C20.2487 25.2419 21.4004 25.2419 20.9372 23.557C20.9372 23.557 20.499 23.2626 21.4942 22.8242C21.6736 22.7108 21.8186 22.5505 21.9136 22.3606C21.9136 22.3606 23.2844 22.0663 23.4284 21.2395C23.4284 21.2395 23.4284 20.1621 23.4284 19.8427C23.4284 19.8427 23.8164 19.5734 23.178 19.304C23.1889 19.1822 23.1727 19.0594 23.1305 18.9446C23.0883 18.8298 23.0211 18.7258 22.9339 18.6401C22.9339 18.6401 23.4221 18.0952 22.8525 17.782C23.0485 16.9682 23.5278 16.2509 24.2045 15.7589C24.6207 15.107 25.2484 14.6182 25.9821 14.3746ZM26.7958 20.5755C26.7958 20.3939 27.0274 20.4377 27.0274 20.4377C27.572 21.3146 27.1964 21.8345 27.1463 21.9034L27.0399 21.6529C26.984 22.0949 26.8392 22.521 26.6143 22.9056C26.1449 24.1144 25.4751 25.5676 25.4751 25.5676C25.1857 25.5935 24.9057 25.6834 24.6552 25.8306C24.6552 25.7367 24.3672 25.5676 24.3672 25.5676C24.2973 25.47 24.2523 25.3568 24.2359 25.2378C24.2196 25.1189 24.2324 24.9977 24.2733 24.8849C24.2048 24.6963 24.1867 24.4931 24.2207 24.2953C24.2547 24.0976 24.3398 23.9122 24.4674 23.7574C24.599 23.5668 24.6841 23.3478 24.7156 23.1183C24.7471 22.8887 24.7243 22.6549 24.6489 22.4358C24.6476 22.3034 24.6946 22.1751 24.781 22.0748C24.8674 21.9745 24.9873 21.9091 25.1183 21.8909C25.4721 21.7961 25.8031 21.6307 26.0914 21.4047C26.3796 21.1787 26.6193 20.8966 26.7958 20.5755Z" fill="#D9A528"/>
<path d="M17.9516 13.3786C17.9208 13.2707 17.8548 13.1762 17.764 13.1104C17.6732 13.0445 17.5629 13.011 17.4509 13.0153C17.1782 13.058 16.8991 13.0146 16.6523 12.8911C16.4055 12.7676 16.2033 12.5702 16.0738 12.3263C15.9418 12.0912 15.881 11.8227 15.8988 11.5536C15.9165 11.2844 16.0122 11.0263 16.174 10.8106C16.2125 10.7665 16.2419 10.7151 16.2602 10.6595C16.2786 10.6039 16.2857 10.5452 16.281 10.4868C16.2764 10.4284 16.2601 10.3716 16.2331 10.3196C16.2061 10.2676 16.169 10.2216 16.1239 10.1842C15.3994 9.49857 14.5217 8.99607 13.5639 8.71855C13.4543 8.69034 13.3382 8.7027 13.237 8.75334C13.1358 8.80397 13.0563 8.88949 13.013 8.99414C12.9038 9.24184 12.7249 9.45241 12.4982 9.60023C12.2715 9.74805 12.0067 9.82674 11.7362 9.82674C11.4656 9.82674 11.2008 9.74805 10.9741 9.60023C10.7474 9.45241 10.5686 9.24184 10.4593 8.99414C10.4431 8.93931 10.4158 8.88837 10.3792 8.84446C10.3426 8.80055 10.2974 8.76458 10.2464 8.73877C10.1954 8.71296 10.1397 8.69786 10.0827 8.69438C10.0256 8.6909 9.96847 8.69913 9.91472 8.71855C8.94539 8.99526 8.06368 9.51731 7.35469 10.2343C7.27143 10.308 7.21977 10.411 7.21044 10.5218C7.20112 10.6326 7.23484 10.7428 7.30461 10.8294C7.46424 11.0461 7.5585 11.304 7.57625 11.5726C7.59399 11.8412 7.53449 12.1093 7.40476 12.3451C7.23599 12.6287 6.97864 12.8488 6.67243 12.9715C6.47345 13.0493 6.25955 13.0814 6.04651 13.0654C5.9315 13.0489 5.81455 13.0775 5.72008 13.1452C5.62561 13.2129 5.56092 13.3145 5.53951 13.4287C5.41053 13.9084 5.3515 14.4041 5.36425 14.9007C5.35485 15.4094 5.41379 15.9171 5.53951 16.4102C5.56496 16.5199 5.63219 16.6153 5.72688 16.6761C5.82157 16.7369 5.93625 16.7584 6.04651 16.7359C6.31777 16.6902 6.59653 16.7316 6.84279 16.8543C7.08906 16.9769 7.29017 17.1745 7.41728 17.4186C7.54798 17.653 7.60807 17.9203 7.5903 18.1882C7.57253 18.456 7.47766 18.713 7.31713 18.9281C7.24087 19.0179 7.20331 19.1342 7.2127 19.2517C7.22209 19.3691 7.27766 19.478 7.36721 19.5545C8.1045 20.2615 8.99909 20.7832 9.97731 21.0765C10.0861 21.1058 10.2018 21.0939 10.3023 21.043C10.4028 20.9922 10.481 20.9059 10.5219 20.8009C10.6309 20.5586 10.8064 20.3523 11.028 20.2059C11.2496 20.0596 11.5082 19.9792 11.7737 19.9741C11.8173 19.9673 11.8616 19.9673 11.9052 19.9741C12.1501 19.9968 12.3846 20.0842 12.5847 20.2272C12.7849 20.3703 12.9435 20.5639 13.0443 20.7884C13.0776 20.8693 13.1339 20.9385 13.2062 20.9876C13.2786 21.0366 13.3638 21.0632 13.4512 21.064H13.5889C14.5647 20.7715 15.4586 20.2545 16.199 19.5545C16.2867 19.4763 16.34 19.3664 16.347 19.2491C16.354 19.1317 16.3143 19.0163 16.2366 18.9281C16.0801 18.7108 15.9888 18.4535 15.9733 18.1861C15.9578 17.9188 16.0187 17.6526 16.1489 17.4186C16.2935 17.1895 16.4988 17.005 16.7419 16.8855C16.985 16.7661 17.2564 16.7165 17.526 16.7421C17.6423 16.7552 17.7592 16.7237 17.8533 16.654C17.9474 16.5843 18.0115 16.4815 18.033 16.3663C18.1564 15.8729 18.2153 15.3655 18.2082 14.8568C18.1839 14.3554 18.0977 13.8589 17.9516 13.3786ZM9.77702 16.5856C9.73818 16.6318 9.6891 16.6683 9.63369 16.6922C9.57827 16.7162 9.51805 16.7268 9.4578 16.7234C9.3969 16.7247 9.33642 16.713 9.28032 16.6893C9.22423 16.6655 9.17379 16.6302 9.13231 16.5856L7.7678 15.2076C7.68524 15.1243 7.63891 15.0117 7.63891 14.8944C7.63891 14.7771 7.68524 14.6645 7.7678 14.5812L9.13857 13.2032C9.186 13.1551 9.24434 13.1192 9.30864 13.0984C9.37294 13.0777 9.44129 13.0728 9.50787 13.0842C9.60977 13.0944 9.706 13.136 9.78328 13.2032C9.80754 13.2276 9.82858 13.255 9.84587 13.2847C9.90512 13.3704 9.93141 13.4747 9.91991 13.5782C9.90841 13.6818 9.85988 13.7778 9.78328 13.8484L8.76302 14.8944L9.81457 15.9467C9.85584 15.9902 9.88775 16.0417 9.90832 16.0981C9.92889 16.1544 9.93769 16.2144 9.93417 16.2743C9.93065 16.3341 9.91489 16.3927 9.88786 16.4462C9.86082 16.4998 9.8231 16.5472 9.77702 16.5856ZM13.0631 13.2408L11.5296 16.31L11.2354 16.9363C11.2029 17.0177 11.1467 17.0874 11.0742 17.1365C11.0017 17.1857 10.9161 17.2119 10.8286 17.2119C10.7347 17.2119 10.6909 17.2119 10.6533 17.1681C10.5984 17.1454 10.5491 17.1109 10.5089 17.067C10.4687 17.0232 10.4386 16.9711 10.4207 16.9144C10.4028 16.8577 10.3975 16.7977 10.4053 16.7387C10.413 16.6798 10.4336 16.6232 10.4655 16.573L10.9287 15.6398L12.2995 12.9026C12.3207 12.8424 12.3559 12.7882 12.4022 12.7444C12.4485 12.7006 12.5046 12.6685 12.5658 12.6507C12.627 12.6329 12.6915 12.6301 12.7541 12.6423C12.8166 12.6545 12.8754 12.6815 12.9254 12.721C13.0037 12.7793 13.0599 12.8624 13.0849 12.9568C13.1099 13.0513 13.1022 13.1514 13.0631 13.2408ZM15.7108 15.2076L14.34 16.5856C14.2996 16.6315 14.2494 16.6678 14.193 16.6917C14.1366 16.7155 14.0756 16.7264 14.0145 16.7234C13.9537 16.7243 13.8933 16.7125 13.8373 16.6888C13.7812 16.665 13.7308 16.6299 13.689 16.5856C13.608 16.5015 13.5627 16.3892 13.5627 16.2724C13.5627 16.1555 13.608 16.0433 13.689 15.9592L14.7469 14.9069L13.689 13.8484C13.6302 13.7616 13.6035 13.657 13.6134 13.5526C13.6233 13.4482 13.6693 13.3506 13.7434 13.2764C13.8175 13.2023 13.9151 13.1563 14.0194 13.1463C14.1237 13.1364 14.2282 13.1632 14.315 13.222L15.6857 14.6C15.7293 14.637 15.7647 14.6825 15.7898 14.7339C15.8148 14.7852 15.829 14.8412 15.8314 14.8983C15.8337 14.9554 15.8242 15.0124 15.8035 15.0656C15.7827 15.1188 15.7511 15.1672 15.7108 15.2076Z" fill="white"/>
</svg>
