<svg width="28" height="28" viewBox="0 0 28 28" fill="none" xmlns="http://www.w3.org/2000/svg">
<g clip-path="url(#clip0)">
<path d="M14.6346 11.13V12.5378C14.6346 12.9849 14.7239 13.36 14.9002 13.6522C15.1433 14.0555 15.5423 14.2867 15.9954 14.2867C16.4393 14.2867 16.8804 14.0705 17.3064 13.6445L21.9561 8.99481C22.977 7.97391 22.977 6.31277 21.9561 5.29187L17.3064 0.642151C16.8804 0.215973 16.4393 0 15.9954 0C15.318 0 14.6346 0.540894 14.6346 1.74893V3.02747C8.03325 3.41733 2.56834 8.4834 1.75615 15.1162C1.71065 15.4866 1.92128 15.8412 2.26842 15.9786C2.36668 16.0175 2.46901 16.0363 2.57005 16.0363C2.82597 16.0363 3.0742 15.9164 3.23228 15.7004C5.41081 12.7238 8.90868 10.9467 12.589 10.9467C13.2709 10.9467 13.9566 11.0082 14.6346 11.13Z" fill="#F6AE2D"/>
<path d="M25.717 12.0215C25.3699 11.8839 24.9738 11.9984 24.7531 12.2998C22.5748 15.2762 19.077 17.0533 15.3967 17.0533C14.7148 17.0533 14.029 16.9918 13.351 16.8701V15.4623C13.351 14.2542 12.6674 13.7134 11.9902 13.7134C11.5463 13.7134 11.1052 13.9295 10.679 14.3557L6.02929 19.0052C5.00859 20.0261 5.00859 21.6873 6.0295 22.7084L10.679 27.3579C11.1052 27.7841 11.5463 28 11.9902 28C12.6674 28 13.351 27.4591 13.351 26.2511V24.9726C19.9526 24.5827 25.4173 19.5166 26.2295 12.8841C26.275 12.5134 26.0644 12.1588 25.717 12.0215Z" fill="#F6AE2D"/>
</g>
<defs>
<clipPath id="clip0">
<rect width="28" height="28" fill="white"/>
</clipPath>
</defs>
</svg>
