<svg width="401" height="137" viewBox="0 0 401 137" fill="none" xmlns="http://www.w3.org/2000/svg">
<g filter="url(#filter0_d)">
<rect x="33" y="29" width="335" height="71" rx="6" fill="white"/>
<rect x="33.5" y="29.5" width="334" height="70" rx="5.5" stroke="black" stroke-opacity="0.08"/>
</g>
<path d="M55.48 57.16C54.3067 57.16 53.2987 56.9253 52.456 56.456C51.624 55.976 50.984 55.304 50.536 54.44C50.088 53.5653 49.864 52.536 49.864 51.352C49.864 50.168 50.088 49.144 50.536 48.28C50.984 47.416 51.624 46.7493 52.456 46.28C53.2987 45.8 54.3067 45.56 55.48 45.56C56.2373 45.56 56.952 45.6773 57.624 45.912C58.3067 46.1467 58.8667 46.4827 59.304 46.92L58.632 48.552C58.152 48.1467 57.6613 47.8533 57.16 47.672C56.6587 47.48 56.12 47.384 55.544 47.384C54.4027 47.384 53.5333 47.7307 52.936 48.424C52.3387 49.1067 52.04 50.0827 52.04 51.352C52.04 52.6213 52.3387 53.6027 52.936 54.296C53.5333 54.9893 54.4027 55.336 55.544 55.336C56.12 55.336 56.6587 55.2453 57.16 55.064C57.6613 54.872 58.152 54.5733 58.632 54.168L59.304 55.8C58.8667 56.2267 58.3067 56.5627 57.624 56.808C56.952 57.0427 56.2373 57.16 55.48 57.16ZM61.0914 57V45.72H65.2834C67.1714 45.72 68.6274 46.2053 69.6514 47.176C70.686 48.1467 71.2034 49.5387 71.2034 51.352C71.2034 53.1547 70.686 54.5467 69.6514 55.528C68.6274 56.5093 67.1714 57 65.2834 57H61.0914ZM63.1394 55.304H65.1554C67.758 55.304 69.0594 53.9867 69.0594 51.352C69.0594 48.728 67.758 47.416 65.1554 47.416H63.1394V55.304ZM73.2789 57V45.72H74.8149L80.8789 53.592V45.72H82.7829V57H81.2629L75.1829 49.096V57H73.2789ZM88.1756 58.84V57.08C87.4716 57.0267 86.805 56.8987 86.1756 56.696C85.557 56.4827 85.0183 56.1893 84.5596 55.816L85.1836 54.2C85.685 54.5733 86.2343 54.8613 86.8316 55.064C87.429 55.2667 88.085 55.368 88.7996 55.368C89.5783 55.368 90.149 55.2293 90.5116 54.952C90.8743 54.6747 91.0556 54.328 91.0556 53.912C91.0556 53.5387 90.933 53.24 90.6876 53.016C90.4423 52.792 90.005 52.6107 89.3756 52.472L87.6796 52.104C86.7196 51.8907 85.9943 51.5387 85.5036 51.048C85.0236 50.5467 84.7836 49.8853 84.7836 49.064C84.7836 48.168 85.0876 47.416 85.6956 46.808C86.3143 46.1893 87.141 45.816 88.1756 45.688V43.88H89.7756V45.672C90.3303 45.7253 90.869 45.8587 91.3916 46.072C91.9143 46.2853 92.357 46.5733 92.7196 46.936L92.1116 48.472C91.301 47.7253 90.2663 47.352 89.0076 47.352C88.3463 47.352 87.813 47.5067 87.4076 47.816C87.013 48.1147 86.8156 48.5093 86.8156 49C86.8156 49.3627 86.9383 49.656 87.1836 49.88C87.429 50.104 87.8236 50.2747 88.3676 50.392L90.0636 50.76C91.0876 50.984 91.845 51.3413 92.3356 51.832C92.837 52.312 93.0876 52.952 93.0876 53.752C93.0876 54.648 92.7783 55.384 92.1596 55.96C91.5516 56.5253 90.757 56.8827 89.7756 57.032V58.84H88.1756ZM99.2019 57V55.48L102.85 51.592C103.341 51.0587 103.693 50.5893 103.906 50.184C104.119 49.768 104.226 49.3467 104.226 48.92C104.226 47.832 103.57 47.288 102.258 47.288C101.234 47.288 100.29 47.672 99.4259 48.44L98.7379 46.904C99.1859 46.4987 99.7459 46.1733 100.418 45.928C101.09 45.6827 101.789 45.56 102.514 45.56C103.719 45.56 104.642 45.832 105.282 46.376C105.933 46.92 106.258 47.6987 106.258 48.712C106.258 49.3947 106.093 50.0507 105.762 50.68C105.442 51.3093 104.935 51.9867 104.242 52.712L101.762 55.304H106.69V57H99.2019ZM112.316 57.16C110.982 57.16 109.964 56.6587 109.26 55.656C108.556 54.6427 108.204 53.2027 108.204 51.336C108.204 49.448 108.556 48.0133 109.26 47.032C109.964 46.0507 110.982 45.56 112.316 45.56C113.66 45.56 114.678 46.0507 115.372 47.032C116.076 48.0133 116.428 49.4427 116.428 51.32C116.428 53.1973 116.076 54.6427 115.372 55.656C114.668 56.6587 113.649 57.16 112.316 57.16ZM112.316 55.48C113.041 55.48 113.574 55.1493 113.916 54.488C114.268 53.816 114.444 52.76 114.444 51.32C114.444 49.8907 114.268 48.856 113.916 48.216C113.574 47.5653 113.041 47.24 112.316 47.24C111.601 47.24 111.068 47.5653 110.716 48.216C110.364 48.856 110.188 49.8907 110.188 51.32C110.188 52.76 110.364 53.816 110.716 54.488C111.068 55.1493 111.601 55.48 112.316 55.48ZM121.909 57.16C120.576 57.16 119.557 56.6587 118.853 55.656C118.149 54.6427 117.797 53.2027 117.797 51.336C117.797 49.448 118.149 48.0133 118.853 47.032C119.557 46.0507 120.576 45.56 121.909 45.56C123.253 45.56 124.272 46.0507 124.965 47.032C125.669 48.0133 126.021 49.4427 126.021 51.32C126.021 53.1973 125.669 54.6427 124.965 55.656C124.261 56.6587 123.243 57.16 121.909 57.16ZM121.909 55.48C122.635 55.48 123.168 55.1493 123.509 54.488C123.861 53.816 124.037 52.76 124.037 51.32C124.037 49.8907 123.861 48.856 123.509 48.216C123.168 47.5653 122.635 47.24 121.909 47.24C121.195 47.24 120.661 47.5653 120.309 48.216C119.957 48.856 119.781 49.8907 119.781 51.32C119.781 52.76 119.957 53.816 120.309 54.488C120.661 55.1493 121.195 55.48 121.909 55.48Z" fill="#15051E"/>
<path d="M261.232 57V45.72H262.768L268.832 53.592V45.72H270.736V57H269.216L263.136 49.096V57H261.232ZM281.497 57.16C280.1 57.16 279.017 56.6693 278.249 55.688C277.492 54.7067 277.113 53.3307 277.113 51.56C277.113 49.6507 277.54 48.1733 278.393 47.128C279.257 46.0827 280.447 45.56 281.961 45.56C282.559 45.56 283.151 45.672 283.737 45.896C284.324 46.1093 284.825 46.4187 285.241 46.824L284.569 48.36C284.175 47.9973 283.753 47.7307 283.305 47.56C282.857 47.3787 282.399 47.288 281.929 47.288C281.001 47.288 280.292 47.6133 279.801 48.264C279.311 48.9147 279.065 49.8853 279.065 51.176V51.64C279.289 51.0533 279.652 50.5947 280.153 50.264C280.655 49.9333 281.231 49.768 281.881 49.768C282.532 49.768 283.108 49.9227 283.609 50.232C284.111 50.5413 284.505 50.968 284.793 51.512C285.081 52.056 285.225 52.68 285.225 53.384C285.225 54.1093 285.065 54.76 284.745 55.336C284.436 55.9013 283.999 56.3493 283.433 56.68C282.879 57 282.233 57.16 281.497 57.16ZM281.385 55.528C281.961 55.528 282.425 55.3413 282.777 54.968C283.14 54.584 283.321 54.0827 283.321 53.464C283.321 52.8453 283.14 52.344 282.777 51.96C282.425 51.576 281.961 51.384 281.385 51.384C280.809 51.384 280.34 51.576 279.977 51.96C279.625 52.344 279.449 52.8453 279.449 53.464C279.449 54.0827 279.625 54.584 279.977 54.968C280.34 55.3413 280.809 55.528 281.385 55.528ZM287.155 57V55.48L290.803 51.592C291.294 51.0587 291.646 50.5893 291.859 50.184C292.072 49.768 292.179 49.3467 292.179 48.92C292.179 47.832 291.523 47.288 290.211 47.288C289.187 47.288 288.243 47.672 287.379 48.44L286.691 46.904C287.139 46.4987 287.699 46.1733 288.371 45.928C289.043 45.6827 289.742 45.56 290.467 45.56C291.672 45.56 292.595 45.832 293.235 46.376C293.886 46.92 294.211 47.6987 294.211 48.712C294.211 49.3947 294.046 50.0507 293.715 50.68C293.395 51.3093 292.888 51.9867 292.195 52.712L289.715 55.304H294.643V57H287.155ZM297.309 59.128L296.493 58.488C296.759 58.2213 296.957 57.9653 297.085 57.72C297.223 57.4853 297.319 57.2453 297.373 57H296.333V54.776H298.573V56.248C298.573 56.792 298.477 57.288 298.285 57.736C298.103 58.1947 297.778 58.6587 297.309 59.128ZM304.014 57.16C303.246 57.16 302.51 57.048 301.806 56.824C301.112 56.5893 300.536 56.2747 300.078 55.88L300.75 54.312C301.71 55.0587 302.776 55.432 303.95 55.432C305.39 55.432 306.11 54.8667 306.11 53.736C306.11 53.2027 305.928 52.808 305.566 52.552C305.214 52.2853 304.696 52.152 304.014 52.152H302.206V50.456H303.822C304.419 50.456 304.894 50.312 305.246 50.024C305.598 49.7253 305.774 49.3147 305.774 48.792C305.774 48.3013 305.608 47.928 305.278 47.672C304.958 47.416 304.488 47.288 303.87 47.288C302.76 47.288 301.784 47.672 300.942 48.44L300.27 46.904C300.718 46.4773 301.278 46.1467 301.95 45.912C302.622 45.6773 303.32 45.56 304.046 45.56C305.219 45.56 306.131 45.8267 306.782 46.36C307.432 46.8827 307.758 47.6133 307.758 48.552C307.758 49.16 307.603 49.6933 307.294 50.152C306.984 50.6107 306.563 50.9413 306.03 51.144C306.68 51.3253 307.187 51.6613 307.55 52.152C307.912 52.632 308.094 53.2187 308.094 53.912C308.094 54.9147 307.731 55.7093 307.006 56.296C306.28 56.872 305.283 57.16 304.014 57.16ZM310.407 57L315.495 47.432H309.911V45.72H317.767V47.256L312.663 57H310.407ZM323.841 57.16C322.444 57.16 321.361 56.6693 320.593 55.688C319.836 54.7067 319.457 53.3307 319.457 51.56C319.457 49.6507 319.884 48.1733 320.737 47.128C321.601 46.0827 322.79 45.56 324.305 45.56C324.902 45.56 325.494 45.672 326.081 45.896C326.668 46.1093 327.169 46.4187 327.585 46.824L326.913 48.36C326.518 47.9973 326.097 47.7307 325.649 47.56C325.201 47.3787 324.742 47.288 324.273 47.288C323.345 47.288 322.636 47.6133 322.145 48.264C321.654 48.9147 321.409 49.8853 321.409 51.176V51.64C321.633 51.0533 321.996 50.5947 322.497 50.264C322.998 49.9333 323.574 49.768 324.225 49.768C324.876 49.768 325.452 49.9227 325.953 50.232C326.454 50.5413 326.849 50.968 327.137 51.512C327.425 52.056 327.569 52.68 327.569 53.384C327.569 54.1093 327.409 54.76 327.089 55.336C326.78 55.9013 326.342 56.3493 325.777 56.68C325.222 57 324.577 57.16 323.841 57.16ZM323.729 55.528C324.305 55.528 324.769 55.3413 325.121 54.968C325.484 54.584 325.665 54.0827 325.665 53.464C325.665 52.8453 325.484 52.344 325.121 51.96C324.769 51.576 324.305 51.384 323.729 51.384C323.153 51.384 322.684 51.576 322.321 51.96C321.969 52.344 321.793 52.8453 321.793 53.464C321.793 54.0827 321.969 54.584 322.321 54.968C322.684 55.3413 323.153 55.528 323.729 55.528ZM329.083 57V54.776H331.323V57H329.083ZM336.988 57.16C335.676 57.16 334.646 56.8773 333.9 56.312C333.164 55.7467 332.796 54.9627 332.796 53.96C332.796 53.2773 332.972 52.696 333.324 52.216C333.686 51.736 334.156 51.4 334.732 51.208C334.22 50.984 333.814 50.6427 333.516 50.184C333.228 49.7253 333.084 49.1973 333.084 48.6C333.084 47.6507 333.436 46.9093 334.14 46.376C334.844 45.832 335.793 45.56 336.988 45.56C338.193 45.56 339.148 45.832 339.852 46.376C340.556 46.9093 340.908 47.6507 340.908 48.6C340.908 49.1973 340.758 49.7307 340.46 50.2C340.172 50.6587 339.777 50.9947 339.276 51.208C339.852 51.4 340.31 51.7413 340.652 52.232C341.004 52.712 341.18 53.288 341.18 53.96C341.18 54.9627 340.806 55.7467 340.06 56.312C339.324 56.8773 338.3 57.16 336.988 57.16ZM336.988 50.488C337.617 50.488 338.108 50.3387 338.46 50.04C338.822 49.7413 339.004 49.3307 339.004 48.808C339.004 48.296 338.822 47.896 338.46 47.608C338.108 47.3093 337.617 47.16 336.988 47.16C336.358 47.16 335.868 47.3093 335.516 47.608C335.164 47.896 334.988 48.296 334.988 48.808C334.988 49.3307 335.164 49.7413 335.516 50.04C335.868 50.3387 336.358 50.488 336.988 50.488ZM336.988 55.56C338.513 55.56 339.276 54.9787 339.276 53.816C339.276 52.664 338.513 52.088 336.988 52.088C336.241 52.088 335.67 52.232 335.276 52.52C334.892 52.808 334.7 53.24 334.7 53.816C334.7 54.392 334.892 54.8293 335.276 55.128C335.67 55.416 336.241 55.56 336.988 55.56ZM343.525 57V55.304H346.069V48.056L344.101 49.24L343.301 47.736L346.661 45.72H348.117V55.304H350.501V57H343.525Z" fill="#15051E"/>
<line x1="260" y1="50.5" x2="272" y2="50.5" stroke="#15051E"/>
<line x1="260" y1="52.5" x2="272" y2="52.5" stroke="#15051E"/>
<path d="M207.017 50.25H186V53.75H207.017V59L214 52L207.017 45V50.25Z" fill="#15051E"/>
<path d="M53.704 85.108C52.872 85.108 52.16 84.932 51.568 84.58C50.976 84.228 50.52 83.728 50.2 83.08C49.888 82.432 49.732 81.66 49.732 80.764C49.732 79.876 49.888 79.108 50.2 78.46C50.52 77.812 50.976 77.312 51.568 76.96C52.16 76.608 52.872 76.432 53.704 76.432C54.288 76.432 54.824 76.524 55.312 76.708C55.808 76.892 56.228 77.16 56.572 77.512L56.188 78.316C55.82 77.972 55.436 77.724 55.036 77.572C54.644 77.412 54.208 77.332 53.728 77.332C52.776 77.332 52.048 77.632 51.544 78.232C51.04 78.832 50.788 79.676 50.788 80.764C50.788 81.86 51.04 82.708 51.544 83.308C52.048 83.908 52.776 84.208 53.728 84.208C54.208 84.208 54.644 84.132 55.036 83.98C55.436 83.82 55.82 83.568 56.188 83.224L56.572 84.028C56.228 84.372 55.808 84.64 55.312 84.832C54.824 85.016 54.288 85.108 53.704 85.108ZM58.1182 85V76.54H60.9742C62.3422 76.54 63.3982 76.904 64.1422 77.632C64.8862 78.352 65.2582 79.396 65.2582 80.764C65.2582 82.132 64.8862 83.18 64.1422 83.908C63.3982 84.636 62.3422 85 60.9742 85H58.1182ZM59.1022 84.16H60.9022C63.1102 84.16 64.2142 83.028 64.2142 80.764C64.2142 78.508 63.1102 77.38 60.9022 77.38H59.1022V84.16ZM67.0245 85V76.54H67.7925L72.8925 83.344V76.54H73.8045V85H73.0605L67.9485 78.172V85H67.0245ZM78.1753 86.38V85.048C77.6393 85.024 77.1313 84.932 76.6513 84.772C76.1793 84.612 75.7673 84.372 75.4153 84.052L75.7753 83.26C76.1513 83.572 76.5513 83.804 76.9753 83.956C77.4073 84.108 77.9073 84.184 78.4753 84.184C79.1553 84.184 79.6593 84.052 79.9873 83.788C80.3233 83.524 80.4913 83.18 80.4913 82.756C80.4913 82.404 80.3713 82.124 80.1313 81.916C79.8993 81.708 79.5033 81.544 78.9433 81.424L77.7433 81.172C77.0233 81.02 76.4833 80.764 76.1233 80.404C75.7713 80.036 75.5953 79.552 75.5953 78.952C75.5953 78.504 75.6993 78.104 75.9073 77.752C76.1233 77.392 76.4233 77.104 76.8073 76.888C77.1993 76.672 77.6553 76.544 78.1753 76.504V75.16H78.9913V76.504C79.3993 76.536 79.8033 76.636 80.2033 76.804C80.6113 76.972 80.9593 77.212 81.2473 77.524L80.9113 78.292C80.5913 77.964 80.2353 77.728 79.8433 77.584C79.4513 77.432 79.0153 77.356 78.5353 77.356C77.9433 77.356 77.4673 77.5 77.1073 77.788C76.7473 78.076 76.5673 78.456 76.5673 78.928C76.5673 79.304 76.6793 79.6 76.9033 79.816C77.1353 80.032 77.4993 80.192 77.9953 80.296L79.1953 80.56C79.9713 80.72 80.5473 80.972 80.9233 81.316C81.2993 81.66 81.4873 82.12 81.4873 82.696C81.4873 83.352 81.2553 83.888 80.7913 84.304C80.3273 84.712 79.7273 84.956 78.9913 85.036V86.38H78.1753ZM83.5466 85V84.16H85.4786V77.728L83.9546 78.688L83.5346 77.956L85.7546 76.54H86.4626V84.16H88.2746V85H83.5466ZM93.1999 82.204V81.4H96.5599V82.204H93.1999ZM101.548 85V76.54H102.316L107.416 83.344V76.54H108.328V85H107.584L102.472 78.172V85H101.548ZM115.973 85.108C115.413 85.108 114.881 85.024 114.377 84.856C113.873 84.68 113.449 84.428 113.105 84.1L113.465 83.32C113.857 83.64 114.253 83.872 114.653 84.016C115.053 84.16 115.485 84.232 115.949 84.232C116.557 84.232 117.021 84.1 117.341 83.836C117.669 83.564 117.833 83.168 117.833 82.648C117.833 82.152 117.669 81.776 117.341 81.52C117.013 81.264 116.537 81.136 115.913 81.136H114.665V80.284H115.829C116.373 80.284 116.801 80.144 117.113 79.864C117.433 79.576 117.593 79.184 117.593 78.688C117.593 78.248 117.445 77.908 117.149 77.668C116.861 77.428 116.449 77.308 115.913 77.308C115.033 77.308 114.265 77.628 113.609 78.268L113.249 77.5C113.561 77.164 113.957 76.904 114.437 76.72C114.925 76.528 115.437 76.432 115.973 76.432C116.789 76.432 117.425 76.624 117.881 77.008C118.345 77.392 118.577 77.924 118.577 78.604C118.577 79.076 118.457 79.492 118.217 79.852C117.977 80.204 117.645 80.46 117.221 80.62C117.725 80.756 118.117 81.008 118.397 81.376C118.677 81.736 118.817 82.184 118.817 82.72C118.817 83.448 118.561 84.028 118.049 84.46C117.545 84.892 116.853 85.108 115.973 85.108ZM121.152 85V84.16H123.084V77.728L121.56 78.688L121.14 77.956L123.36 76.54H124.068V84.16H125.88V85H121.152ZM128.347 85V84.16H130.279V77.728L128.755 78.688L128.335 77.956L130.555 76.54H131.263V84.16H133.075V85H128.347ZM134.811 85V83.776H136.035V85H134.811ZM139.809 85.108C139.377 85.108 138.941 85.016 138.501 84.832C138.061 84.648 137.701 84.4 137.421 84.088L137.793 83.308C138.081 83.62 138.397 83.852 138.741 84.004C139.093 84.156 139.453 84.232 139.821 84.232C140.605 84.232 141.209 83.94 141.633 83.356C142.057 82.772 142.269 81.904 142.269 80.752V80.152C142.109 80.68 141.821 81.096 141.405 81.4C140.997 81.696 140.513 81.844 139.953 81.844C139.457 81.844 139.017 81.732 138.633 81.508C138.249 81.276 137.949 80.96 137.733 80.56C137.517 80.16 137.409 79.7 137.409 79.18C137.409 78.644 137.521 78.172 137.745 77.764C137.977 77.348 138.293 77.024 138.693 76.792C139.101 76.552 139.569 76.432 140.097 76.432C141.097 76.432 141.865 76.796 142.401 77.524C142.945 78.244 143.217 79.256 143.217 80.56C143.217 82.016 142.917 83.14 142.317 83.932C141.717 84.716 140.881 85.108 139.809 85.108ZM140.157 81.016C140.693 81.016 141.129 80.844 141.465 80.5C141.801 80.148 141.969 79.696 141.969 79.144C141.969 78.584 141.801 78.132 141.465 77.788C141.129 77.436 140.693 77.26 140.157 77.26C139.629 77.26 139.197 77.436 138.861 77.788C138.525 78.132 138.357 78.584 138.357 79.144C138.357 79.696 138.525 80.148 138.861 80.5C139.197 80.844 139.629 81.016 140.157 81.016ZM147.484 85.108C146.924 85.108 146.392 85.024 145.888 84.856C145.384 84.68 144.96 84.428 144.616 84.1L144.976 83.32C145.368 83.64 145.764 83.872 146.164 84.016C146.564 84.16 146.996 84.232 147.46 84.232C148.068 84.232 148.532 84.1 148.852 83.836C149.18 83.564 149.344 83.168 149.344 82.648C149.344 82.152 149.18 81.776 148.852 81.52C148.524 81.264 148.048 81.136 147.424 81.136H146.176V80.284H147.34C147.884 80.284 148.312 80.144 148.624 79.864C148.944 79.576 149.104 79.184 149.104 78.688C149.104 78.248 148.956 77.908 148.66 77.668C148.372 77.428 147.96 77.308 147.424 77.308C146.544 77.308 145.776 77.628 145.12 78.268L144.76 77.5C145.072 77.164 145.468 76.904 145.948 76.72C146.436 76.528 146.948 76.432 147.484 76.432C148.3 76.432 148.936 76.624 149.392 77.008C149.856 77.392 150.088 77.924 150.088 78.604C150.088 79.076 149.968 79.492 149.728 79.852C149.488 80.204 149.156 80.46 148.732 80.62C149.236 80.756 149.628 81.008 149.908 81.376C150.188 81.736 150.328 82.184 150.328 82.72C150.328 83.448 150.072 84.028 149.56 84.46C149.056 84.892 148.364 85.108 147.484 85.108Z" fill="#15051E"/>
<path d="M286.78 85.108C286.236 85.108 285.716 85.02 285.22 84.844C284.724 84.668 284.304 84.42 283.96 84.1L284.332 83.32C285.076 83.928 285.888 84.232 286.768 84.232C287.352 84.232 287.812 84.068 288.148 83.74C288.484 83.412 288.652 82.98 288.652 82.444C288.652 81.892 288.492 81.44 288.172 81.088C287.852 80.736 287.412 80.56 286.852 80.56C286.044 80.56 285.408 80.896 284.944 81.568H284.224V76.54H289.132V77.38H285.196V80.404C285.66 79.94 286.272 79.708 287.032 79.708C287.56 79.708 288.02 79.82 288.412 80.044C288.804 80.268 289.104 80.584 289.312 80.992C289.528 81.392 289.636 81.86 289.636 82.396C289.636 82.924 289.52 83.392 289.288 83.8C289.056 84.208 288.724 84.528 288.292 84.76C287.868 84.992 287.364 85.108 286.78 85.108ZM294.321 85V76.54H295.305V80.284H300.381V76.54H301.365V85H300.381V81.136H295.305V85H294.321ZM305.742 85.108C305.174 85.108 304.682 84.984 304.266 84.736C303.85 84.488 303.526 84.14 303.294 83.692C303.07 83.236 302.958 82.7 302.958 82.084C302.958 81.468 303.07 80.936 303.294 80.488C303.526 80.032 303.85 79.68 304.266 79.432C304.682 79.184 305.174 79.06 305.742 79.06C306.302 79.06 306.79 79.184 307.206 79.432C307.63 79.68 307.954 80.032 308.178 80.488C308.41 80.936 308.526 81.468 308.526 82.084C308.526 82.7 308.41 83.236 308.178 83.692C307.954 84.14 307.63 84.488 307.206 84.736C306.79 84.984 306.302 85.108 305.742 85.108ZM305.742 84.328C306.286 84.328 306.722 84.136 307.05 83.752C307.378 83.36 307.542 82.804 307.542 82.084C307.542 81.356 307.378 80.8 307.05 80.416C306.722 80.032 306.286 79.84 305.742 79.84C305.19 79.84 304.75 80.032 304.422 80.416C304.102 80.8 303.942 81.356 303.942 82.084C303.942 82.804 304.102 83.36 304.422 83.752C304.75 84.136 305.19 84.328 305.742 84.328ZM312.05 85.108C310.65 85.108 309.95 84.336 309.95 82.792V79.168H310.922V82.78C310.922 83.3 311.026 83.684 311.234 83.932C311.45 84.18 311.786 84.304 312.242 84.304C312.738 84.304 313.142 84.14 313.454 83.812C313.766 83.476 313.922 83.032 313.922 82.48V79.168H314.894V85H313.946V84.016C313.762 84.368 313.502 84.64 313.166 84.832C312.838 85.016 312.466 85.108 312.05 85.108ZM316.713 85V79.168H317.661V80.212C317.973 79.508 318.613 79.12 319.581 79.048L319.929 79.012L320.001 79.852L319.389 79.924C318.837 79.972 318.417 80.148 318.129 80.452C317.841 80.748 317.697 81.156 317.697 81.676V85H316.713ZM322.923 85.108C322.467 85.108 322.035 85.044 321.627 84.916C321.219 84.788 320.883 84.608 320.619 84.376L320.931 83.692C321.219 83.924 321.535 84.096 321.879 84.208C322.231 84.312 322.587 84.364 322.947 84.364C323.403 84.364 323.747 84.28 323.979 84.112C324.211 83.944 324.327 83.716 324.327 83.428C324.327 83.204 324.251 83.028 324.099 82.9C323.947 82.764 323.707 82.66 323.379 82.588L322.287 82.348C321.295 82.132 320.799 81.62 320.799 80.812C320.799 80.284 321.007 79.86 321.423 79.54C321.847 79.22 322.399 79.06 323.079 79.06C323.479 79.06 323.859 79.124 324.219 79.252C324.587 79.372 324.891 79.552 325.131 79.792L324.807 80.476C324.575 80.26 324.303 80.096 323.991 79.984C323.687 79.864 323.383 79.804 323.079 79.804C322.631 79.804 322.291 79.892 322.059 80.068C321.827 80.244 321.711 80.476 321.711 80.764C321.711 81.212 322.007 81.5 322.599 81.628L323.691 81.856C324.203 81.968 324.591 82.148 324.855 82.396C325.119 82.636 325.251 82.964 325.251 83.38C325.251 83.916 325.039 84.34 324.615 84.652C324.191 84.956 323.627 85.108 322.923 85.108ZM329.13 85L332.862 76.54H333.702L337.434 85H336.414L335.478 82.84H331.074L330.15 85H329.13ZM333.27 77.692L331.434 82.012H335.13L333.294 77.692H333.27ZM341.078 87.268C340.574 87.268 340.098 87.2 339.65 87.064C339.21 86.936 338.818 86.74 338.474 86.476L338.798 85.768C339.158 86.024 339.514 86.208 339.866 86.32C340.226 86.432 340.614 86.488 341.03 86.488C342.182 86.488 342.758 85.896 342.758 84.712V83.68C342.59 84.048 342.326 84.34 341.966 84.556C341.614 84.764 341.21 84.868 340.754 84.868C340.218 84.868 339.754 84.744 339.362 84.496C338.97 84.248 338.666 83.908 338.45 83.476C338.242 83.036 338.138 82.528 338.138 81.952C338.138 81.376 338.242 80.872 338.45 80.44C338.666 80 338.97 79.66 339.362 79.42C339.754 79.18 340.218 79.06 340.754 79.06C341.21 79.06 341.614 79.164 341.966 79.372C342.326 79.58 342.59 79.864 342.758 80.224V79.168H343.706V84.58C343.706 85.476 343.482 86.148 343.034 86.596C342.594 87.044 341.942 87.268 341.078 87.268ZM340.934 84.076C341.494 84.076 341.938 83.884 342.266 83.5C342.594 83.116 342.758 82.6 342.758 81.952C342.758 81.304 342.594 80.792 342.266 80.416C341.938 80.032 341.494 79.84 340.934 79.84C340.382 79.84 339.942 80.032 339.614 80.416C339.286 80.792 339.122 81.304 339.122 81.952C339.122 82.6 339.286 83.116 339.614 83.5C339.942 83.884 340.382 84.076 340.934 84.076ZM347.953 85.108C347.385 85.108 346.893 84.984 346.477 84.736C346.061 84.488 345.737 84.14 345.505 83.692C345.281 83.236 345.169 82.7 345.169 82.084C345.169 81.468 345.281 80.936 345.505 80.488C345.737 80.032 346.061 79.68 346.477 79.432C346.893 79.184 347.385 79.06 347.953 79.06C348.513 79.06 349.001 79.184 349.417 79.432C349.841 79.68 350.165 80.032 350.389 80.488C350.621 80.936 350.737 81.468 350.737 82.084C350.737 82.7 350.621 83.236 350.389 83.692C350.165 84.14 349.841 84.488 349.417 84.736C349.001 84.984 348.513 85.108 347.953 85.108ZM347.953 84.328C348.497 84.328 348.933 84.136 349.261 83.752C349.589 83.36 349.753 82.804 349.753 82.084C349.753 81.356 349.589 80.8 349.261 80.416C348.933 80.032 348.497 79.84 347.953 79.84C347.401 79.84 346.961 80.032 346.633 80.416C346.313 80.8 346.153 81.356 346.153 82.084C346.153 82.804 346.313 83.36 346.633 83.752C346.961 84.136 347.401 84.328 347.953 84.328Z" fill="#15051E"/>
<defs>
<filter id="filter0_d" x="0" y="0" width="401" height="137" filterUnits="userSpaceOnUse" color-interpolation-filters="sRGB">
<feFlood flood-opacity="0" result="BackgroundImageFix"/>
<feColorMatrix in="SourceAlpha" type="matrix" values="0 0 0 0 0 0 0 0 0 0 0 0 0 0 0 0 0 0 127 0"/>
<feMorphology radius="3" operator="dilate" in="SourceAlpha" result="effect1_dropShadow"/>
<feOffset dy="4"/>
<feGaussianBlur stdDeviation="15"/>
<feColorMatrix type="matrix" values="0 0 0 0 0 0 0 0 0 0 0 0 0 0 0 0 0 0 0.08 0"/>
<feBlend mode="normal" in2="BackgroundImageFix" result="effect1_dropShadow"/>
<feBlend mode="normal" in="SourceGraphic" in2="effect1_dropShadow" result="shape"/>
</filter>
</defs>
</svg>
