<svg width="28" height="28" viewBox="0 0 28 28" fill="none" xmlns="http://www.w3.org/2000/svg">
<path d="M26.1601 3.91884C26.1098 3.55783 25.8501 3.26087 25.4989 3.16327L14.2453 0.0336123C14.0848 -0.0110413 13.9154 -0.0110413 13.7548 0.0336123L2.50111 3.16327C2.14999 3.26087 1.89024 3.55771 1.83997 3.91884C1.7747 4.38819 0.285637 15.4779 4.10498 20.9947C7.91981 26.5049 13.5475 27.917 13.7852 27.9744C13.8558 27.9915 13.9278 27.9999 14 27.9999C14.0723 27.9999 14.1442 27.9914 14.2149 27.9744C14.4527 27.917 20.0804 26.5049 23.8951 20.9947C27.7144 15.478 26.2253 4.38831 26.1601 3.91884ZM21.2572 10.3931L13.5811 18.0693C13.4024 18.2479 13.1682 18.3373 12.9341 18.3373C12.6999 18.3373 12.4657 18.248 12.2871 18.0693L7.54099 13.3232C7.36933 13.1516 7.27295 12.9189 7.27295 12.6762C7.27295 12.4335 7.36945 12.2007 7.54099 12.0292L8.48335 11.0868C8.8407 10.7296 9.4201 10.7295 9.77733 11.0868L12.9341 14.2436L19.0209 8.15666C19.1924 7.985 19.4252 7.88862 19.6679 7.88862C19.9105 7.88862 20.1433 7.985 20.3148 8.15666L21.2572 9.09902C21.6146 9.45638 21.6146 10.0358 21.2572 10.3931Z" fill="#DE6449"/>
</svg>
