<svg width="101" height="101" viewBox="0 0 101 101" fill="none" xmlns="http://www.w3.org/2000/svg">
<g clip-path="url(#clip0)">
<path d="M85.8901 29.1027L37.5909 70.4997L37.5415 70.5412L35.2105 70.9683C32.1242 71.5337 29.1644 69.4933 28.599 66.407L23.3517 37.8079C22.7842 34.7216 24.8266 31.7619 27.9129 31.1945L29.3226 30.9355L78.7863 21.8605C81.8706 21.293 84.8323 23.3354 85.3978 26.4217L85.8901 29.1027Z" fill="#E8E0A0"/>
<path d="M38.4945 69.7259L37.5909 70.499L37.5415 70.5405L35.2105 70.9675C32.1242 71.533 29.1644 69.4926 28.599 66.4063L23.3517 37.8072C22.7842 34.7209 24.8266 31.7612 27.9129 31.1937L29.3226 30.9347L32.9882 30.2625C30.327 31.1324 28.6543 33.8549 29.1743 36.6842L34.4216 65.2774C34.8269 67.4898 36.464 69.1644 38.4945 69.7259Z" fill="#BCA900"/>
<path d="M93.8872 68.2367L44.4806 77.3036C40.9902 77.9442 37.6412 75.6339 37.0006 72.1433L32.0212 45.0101C31.3806 41.5197 33.6909 38.1706 37.1815 37.53L86.588 28.4631C90.0784 27.8225 93.4275 30.1328 94.0681 33.6234L99.0475 60.7567C99.688 64.2473 97.3778 67.5963 93.8872 68.2367Z" fill="#E8E0A0"/>
<path d="M65.8766 64.6465C72.2945 64.6465 77.4972 59.4438 77.4972 53.026C77.4972 46.6081 72.2945 41.4054 65.8766 41.4054C59.4588 41.4054 54.2561 46.6081 54.2561 53.026C54.2561 59.4438 59.4588 64.6465 65.8766 64.6465Z" fill="#BCA900"/>
<path d="M46.7251 76.8929L44.4811 77.3041C40.9895 77.9447 37.6403 75.6334 36.9997 72.1438L32.0213 45.0098C31.3807 41.5201 33.69 38.1709 37.1816 37.5303L38.2018 37.3425C37.4089 38.6414 37.0748 40.2251 37.3714 41.8384L42.931 72.1438C43.3344 74.3424 44.8133 76.0723 46.7251 76.8929Z" fill="#BCA900"/>
<path d="M100.868 60.4925L98.4204 47.0223C98.2739 46.2164 97.5015 45.6824 96.6964 45.8283C95.8907 45.9748 95.3561 46.7467 95.5026 47.5524L97.9507 61.0253C98.1889 62.3233 97.9072 63.6367 97.1572 64.7235C96.4073 65.8103 95.2794 66.5401 93.976 66.7793L84.4305 68.5666C83.6254 68.7175 83.0951 69.4921 83.2458 70.297C83.3792 71.0098 84.0018 71.5072 84.7015 71.5072C84.7921 71.5072 94.5168 69.6952 94.5168 69.6952C96.594 69.3138 98.3987 68.1463 99.5984 66.4074C100.798 64.6689 101.249 62.5673 100.868 60.4925Z" fill="#15051E"/>
<path d="M77.4366 69.8154L44.5748 75.8456C43.2753 76.0839 41.9613 75.8023 40.8745 75.053C39.7876 74.3033 39.0579 73.1751 38.8194 71.8764L33.841 44.7443C33.3489 42.0627 35.1297 39.4808 37.8105 38.9889L87.2171 29.9218C88.5143 29.6837 89.8281 29.9651 90.9151 30.7152C92.0019 31.4651 92.7317 32.5933 92.9701 33.8913L94.2317 40.7677C94.3796 41.5734 95.1534 42.1064 95.9577 41.9585C96.7632 41.8106 97.2964 41.038 97.1486 40.2325L95.887 33.3561C95.5056 31.2787 94.3381 29.474 92.5994 28.2743C90.8603 27.0745 88.7588 26.6236 86.6815 27.0049L86.5413 27.0306L86.3167 25.8086C85.9715 23.9264 84.9137 22.2917 83.3387 21.2054C81.764 20.1194 79.8598 19.7115 77.9782 20.0567L27.1048 29.3915C23.2205 30.1041 20.6402 33.8448 21.3529 37.73L26.6006 66.3305C27.2335 69.7798 30.2539 72.2006 33.6431 72.2006C34.0706 72.2006 34.5042 72.162 34.9393 72.0822L35.8122 71.9218L35.9022 72.4116C36.6011 76.2203 39.9359 78.8934 43.6784 78.8934C44.1504 78.8934 44.6292 78.8509 45.1097 78.7627L77.9714 72.7324C78.7769 72.5846 79.3102 71.8117 79.1623 71.0064C79.015 70.2007 78.2413 69.6675 77.4366 69.8154ZM34.4045 69.1651C32.1273 69.5833 29.9356 68.071 29.5183 65.7951L24.2706 37.1948C23.853 34.918 25.3647 32.7259 27.6406 32.3086L78.514 22.9738C79.6166 22.7709 80.7331 23.0104 81.6556 23.6468C82.5783 24.2832 83.198 25.2409 83.4002 26.344L83.6246 27.566L37.2755 36.072C32.9863 36.8589 30.1373 40.9895 30.9244 45.2797L35.2776 69.005L34.4045 69.1651Z" fill="#15051E"/>
<path d="M52.7919 52.8843C52.7919 60.1095 58.6699 65.9877 65.8951 65.9877C73.1203 65.9877 78.9985 60.1095 78.9985 52.8843C78.9985 45.6591 73.1203 39.7809 65.8951 39.7809C58.6699 39.7809 52.7919 45.6593 52.7919 52.8843ZM76.033 52.8843C76.033 58.4742 71.4852 63.022 65.8953 63.022C60.3055 63.022 55.7578 58.4742 55.7578 52.8843C55.7578 47.2944 60.3055 42.7466 65.8953 42.7466C71.4852 42.7468 76.033 47.2944 76.033 52.8843Z" fill="#15051E"/>
<path d="M1.83532 62.2405L10.7775 60.0546C11.5731 59.8601 12.0602 59.0575 11.8659 58.2621C11.6715 57.4667 10.8688 56.9802 10.0734 57.1737L1.13107 59.3596C0.335477 59.5542 -0.151686 60.3567 0.0426651 61.1521C0.20815 61.8295 0.814337 62.2832 1.48201 62.2832C1.59846 62.2834 1.71709 62.2694 1.83532 62.2405Z" fill="#15051E"/>
<path d="M21.6648 73.137L12.7227 75.3229C11.9271 75.5175 11.4399 76.32 11.6342 77.1154C11.7997 77.7927 12.4059 78.2465 13.0736 78.2465C13.19 78.2465 13.3087 78.2327 13.4269 78.2038L22.369 76.0179C23.1646 75.8233 23.6518 75.0208 23.4574 74.2254C23.2631 73.43 22.4604 72.9432 21.6648 73.137Z" fill="#15051E"/>
<path d="M17.4083 64.1329L3.49839 67.7097C2.70517 67.9138 2.22749 68.722 2.43153 69.515C2.60374 70.1843 3.20597 70.6289 3.86653 70.6289C3.98872 70.6289 4.11308 70.6137 4.23685 70.5819L18.1467 67.0051C18.9399 66.801 19.4176 65.9928 19.2136 65.1997C19.0095 64.4067 18.2013 63.9287 17.4083 64.1329Z" fill="#15051E"/>
<path d="M17.5778 58.5077C17.6909 58.5077 17.8056 58.4948 17.9203 58.4675L19.7995 58.0231C20.5965 57.8344 21.0898 57.0357 20.9014 56.2387C20.7128 55.4417 19.9134 54.9484 19.117 55.1369L17.2378 55.5813C16.4408 55.7699 15.9475 56.5687 16.1359 57.3657C16.2975 58.048 16.906 58.5077 17.5778 58.5077Z" fill="#15051E"/>
<path d="M5.54921 77.3415L2.17109 78.1365C1.37392 78.3242 0.879635 79.1225 1.06726 79.9197C1.228 80.6028 1.83696 81.0633 2.50938 81.0633C2.62188 81.0633 2.73596 81.0504 2.85024 81.0235L6.22835 80.2285C7.02553 80.0409 7.51981 79.2425 7.33218 78.4454C7.14475 77.6482 6.34698 77.1547 5.54921 77.3415Z" fill="#15051E"/>
</g>
<defs>
<clipPath id="clip0">
<rect width="101" height="101" fill="white"/>
</clipPath>
</defs>
</svg>
