<svg width="28" height="28" viewBox="0 0 28 28" fill="none" xmlns="http://www.w3.org/2000/svg">
<path d="M14.6044 11.6697C14.654 11.4676 14.8352 11.3253 15.0435 11.3253H21.6049C22.5914 11.3253 23.399 10.518 23.3758 9.5121C23.3549 8.55807 22.5403 7.78186 21.5603 7.78186H15.3394C14.352 7.78186 13.3901 8.10759 12.6077 8.70371V16.1113C12.8854 16.2067 13.1756 16.2722 13.4742 16.3043L14.6044 11.6697Z" fill="#41D3BD"/>
<path d="M11.7045 15.6659C11.7045 2.53253 11.7045 15.0032 11.7045 1.77151C11.7045 1.29844 11.5199 0.853607 11.1857 0.518849C10.08 -0.586866 8.16101 0.188552 8.16101 1.77151V6.31811L10.0431 13.3638C10.3022 14.3337 10.9074 15.1403 11.7045 15.6659Z" fill="#41D3BD"/>
<path d="M23.8783 12.2286C22.1665 12.2398 20.5521 12.9134 19.3356 14.1288L17.882 15.583C14.9921 18.4713 10.1885 17.4066 9.17094 13.597C6.518 3.66717 7.17538 6.12755 6.43869 3.37137C6.22237 2.56388 5.49476 2.05774 4.73047 2.05774C3.56412 2.05774 2.7143 3.1625 3.01603 4.2887C4.43043 9.56669 5.9374 14.2929 5.9374 21.7819C5.9374 25.2102 8.72723 28 12.1561 28C14.9568 28 17.3739 26.1296 18.1377 23.5437C18.9081 20.9379 18.8571 21.1084 18.8637 21.0921C19.3192 19.9077 20.0057 18.8515 20.9027 17.9539L24.716 14.1412C25.4158 13.4414 24.9373 12.2286 23.8783 12.2286Z" fill="#41D3BD"/>
<path d="M16.094 6.87871L16.7398 4.4688C16.9532 3.6734 16.479 2.85259 15.6836 2.63864C14.8764 2.42345 14.0655 2.90707 13.8534 3.69542L12.8362 7.49291C14.1412 6.81261 15.1734 6.87871 16.094 6.87871Z" fill="#41D3BD"/>
</svg>
